<?xml version="1.0" encoding="UTF-8" standalone="no"?>
<!-- Created with Inkscape (http://www.inkscape.org/) -->

<svg
   width="1000"
   height="1000"
   viewBox="0 0 264.58334 264.58333"
   version="1.1"
   id="svg5"
   inkscape:version="1.2.2 (b0a8486541, 2022-12-01)"
   sodipodi:docname="NewLogo.svg"
   inkscape:export-filename="NewLogo.png"
   inkscape:export-xdpi="96"
   inkscape:export-ydpi="96"
   xmlns:inkscape="http://www.inkscape.org/namespaces/inkscape"
   xmlns:sodipodi="http://sodipodi.sourceforge.net/DTD/sodipodi-0.dtd"
   xmlns="http://www.w3.org/2000/svg"
   xmlns:svg="http://www.w3.org/2000/svg">
  <sodipodi:namedview
     id="namedview7"
     pagecolor="#505050"
     bordercolor="#eeeeee"
     borderopacity="1"
     inkscape:showpageshadow="false"
     inkscape:pageopacity="0"
     inkscape:pagecheckerboard="0"
     inkscape:deskcolor="#505050"
     inkscape:document-units="mm"
     showgrid="false"
     inkscape:zoom="0.75900673"
     inkscape:cx="229.90573"
     inkscape:cy="493.40801"
     inkscape:window-width="1906"
     inkscape:window-height="1029"
     inkscape:window-x="0"
     inkscape:window-y="0"
     inkscape:window-maximized="1"
     inkscape:current-layer="layer1" />
  <defs
     id="defs2" />
  <g
     inkscape:label="Layer 1"
     inkscape:groupmode="layer"
     id="layer1">
    <rect
       style="fill:#15131a;fill-opacity:1;stroke-width:0.264583"
       id="rect11704"
       width="342.90811"
       height="333.52603"
       x="-41.618538"
       y="-33.099178" />
    <path
       style="fill:#fffced;fill-opacity:1;stroke-width:0.252365"
       id="path12798"
       sodipodi:type="arc"
       sodipodi:cx="132.29167"
       sodipodi:cy="132.29167"
       sodipodi:rx="132.29167"
       sodipodi:ry="132.29167"
       sodipodi:start="0"
       sodipodi:end="6.2830008"
       sodipodi:arc-type="slice"
       d="M 264.58334,132.29167 A 132.29167,132.29167 0 0 1 132.29777,264.58334 132.29167,132.29167 0 0 1 5.62949e-7,132.30388 132.29167,132.29167 0 0 1 132.27337,1.2666353e-6 132.29167,132.29167 0 0 1 264.58334,132.26726 l -132.29167,0.0244 z" />
    <path
       style="fill:#282430;fill-opacity:1;stroke-width:0.247317"
       id="path12798-6"
       sodipodi:type="arc"
       sodipodi:cx="132.29166"
       sodipodi:cy="132.29166"
       sodipodi:rx="129.64583"
       sodipodi:ry="129.64583"
       sodipodi:start="0"
       sodipodi:end="6.2830008"
       sodipodi:arc-type="slice"
       d="M 261.93748,132.29166 A 129.64583,129.64583 0 0 1 132.29764,261.93748 129.64583,129.64583 0 0 1 2.6458288,132.30362 129.64583,129.64583 0 0 1 132.27372,2.6458295 129.64583,129.64583 0 0 1 261.93748,132.26774 l -129.64582,0.0239 z" />
    <path
       id="path18291"
       style="fill:#fffcef;fill-opacity:1;stroke-width:0.264583"
       inkscape:transform-center-x="12.575478"
       inkscape:transform-center-y="-1.2234114"
       d="M 108.58724 -2.2332286 L 108.6221 -2.2217565 C 140.97471 -9.9974516 160.70051 -24.054613 125.1038 -39.721518 C 89.504933 -55.389373 92.465856 -31.344657 108.58724 -2.2332286 z "
       transform="matrix(0.15132349,-1.3241198,1.3420292,0.14930407,50.771674,237.35212)" />
    <path
       id="path18291-7"
       style="fill:#ff2c28;fill-opacity:1;stroke-width:0.319443"
       inkscape:transform-center-x="11.317931"
       inkscape:transform-center-y="-1.1010687"
       d="m 61.152784,91.329934 0.01861,-0.04 C 56.185843,51.690177 41.893713,26.293875 18.122858,66.609533 -5.6494398,106.92763 23.795651,106.63005 61.152789,91.329884 Z" />
    <path
       id="path21237"
       style="fill:#fffcef;fill-opacity:1;stroke-width:0.264583"
       inkscape:transform-center-x="12.575478"
       inkscape:transform-center-y="-1.2234114"
       d="M 108.59701 -2.2158467 C 108.60535 -2.2178511 108.61376 -2.2197513 108.6221 -2.2217565 L 108.58724 -2.2332286 C 108.59046 -2.2274234 108.59379 -2.2216524 108.59701 -2.2158467 z "
       transform="matrix(0.15132349,-1.3241198,1.3420292,0.14930407,50.771674,237.35212)" />
    <path
       id="path21235"
       style="fill:#fffcef;fill-opacity:1;stroke-width:0.264583"
       inkscape:transform-center-x="12.575478"
       inkscape:transform-center-y="-1.2234114"
       d="M 50.640058 4.1259173 C 60.091007 -27.792496 57.787612 -51.922474 26.41314 -28.922275 C -4.9611905 -5.9221797 17.357332 3.535086 50.640058 4.1259173 z "
       transform="matrix(0.15132349,-1.3241198,1.3420292,0.14930407,50.771674,237.35212)" />
    <path
       id="path21235-0"
       style="fill:#ff2c28;fill-opacity:1;stroke-width:0.319443"
       inkscape:transform-center-x="11.31793"
       inkscape:transform-center-y="-1.1010716"
       d="m 61.526211,172.38139 c -37.264763,-15.55175 -66.7232867,-16.04922 -43.215967,24.4306 23.507213,40.47965 37.969533,15.1533 43.215967,-24.4306 z" />
    <path
       id="path21233"
       style="fill:#fffcef;fill-opacity:1;stroke-width:0.264583"
       inkscape:transform-center-x="12.575478"
       inkscape:transform-center-y="-1.2234114"
       d="M 27.154241 57.488691 C 4.237557 33.344721 -17.811807 23.274685 -13.580286 61.945877 C -9.3487636 100.61708 10.001141 86.017234 27.154241 57.488691 z "
       transform="matrix(0.15132349,-1.3241198,1.3420292,0.14930407,50.771674,237.35212)" />
    <path
       id="path21233-9"
       style="fill:#ff2c28;fill-opacity:1;stroke-width:0.319443"
       inkscape:transform-center-x="11.317929"
       inkscape:transform-center-y="-1.1010718"
       d="m 131.84231,213.14873 c -32.282781,24.06568 -47.44856,48.98893 -0.16418,49.14258 47.28439,0.15365 32.2856,-24.86762 0.16418,-49.14258 z" />
    <path
       id="path21231"
       style="fill:#fffcef;fill-opacity:1;stroke-width:0.264583"
       inkscape:transform-center-x="12.575478"
       inkscape:transform-center-y="-1.2234114"
       d="M 61.624603 104.50979 C 29.257142 112.28425 9.5119207 126.34451 45.117809 142.01546 C 80.723779 157.68644 77.754456 133.62904 61.624603 104.50979 z "
       transform="matrix(0.15132349,-1.3241198,1.3420292,0.14930407,50.771674,237.35212)" />
    <path
       id="path21231-3"
       style="fill:#ff2c28;fill-opacity:1;stroke-width:0.319443"
       inkscape:transform-center-x="11.31793"
       inkscape:transform-center-y="-1.1010701"
       d="m 203.09969,172.91472 c 4.98203,39.61723 19.27526,65.0371 43.05226,24.71104 23.77703,-40.32614 -5.68452,-40.02026 -43.05226,-24.71104 z" />
    <path
       id="path21229"
       style="fill:#fffcef;fill-opacity:1;stroke-width:0.264583"
       inkscape:transform-center-x="12.575478"
       inkscape:transform-center-y="-1.2234114"
       d="M 119.58155 98.168024 C 110.13061 130.08644 112.434 154.21642 143.80847 131.21622 C 175.1828 108.21612 152.86428 98.758856 119.58155 98.168024 z "
       transform="matrix(0.15132349,-1.3241198,1.3420292,0.14930407,50.771674,237.35212)" />
    <path
       id="path21229-1"
       style="fill:#ff2c28;fill-opacity:1;stroke-width:0.320329"
       inkscape:transform-center-x="11.349369"
       inkscape:transform-center-y="-1.1041282"
       d="M 203.59779,91.869474 C 240.96608,107.46442 270.50643,107.96327 246.93381,67.371009 223.3613,26.778923 208.8588,52.175621 203.59779,91.869474 Z" />
    <path
       id="path21227"
       style="fill:#fffcef;fill-opacity:1;stroke-width:0.264583"
       inkscape:transform-center-x="12.575478"
       inkscape:transform-center-y="-1.2234114"
       d="M 143.06737 44.80525 C 130.41622 31.476576 117.5015 13.859443 108.59701 -2.2158467 C 90.728284 2.076108 69.014093 4.4520911 50.640058 4.1259173 C 45.422673 21.746443 36.623588 41.739545 27.154241 57.488691 C 39.805391 70.817365 52.720115 88.434499 61.624603 104.50979 C 79.493329 100.21783 101.20752 97.841851 119.58155 98.168024 C 124.79894 80.547499 133.59803 60.554397 143.06737 44.80525 z "
       transform="matrix(0.15132349,-1.3241198,1.3420292,0.14930407,50.771674,237.35212)" />
    <path
       id="path21227-9"
       style="fill:#7f7399;fill-opacity:1;stroke-width:0.335415"
       inkscape:transform-center-x="11.883824"
       inkscape:transform-center-y="-1.1561231"
       d="m 132.73351,58.277213 c -18.71279,13.949725 -42.901964,27.624183 -64.562271,36.49821 2.887892,22.964567 2.796009,50.470627 -0.245152,73.415917 21.600574,9.01459 45.697903,22.84571 64.317123,36.91672 18.71279,-13.94973 42.90196,-27.62419 64.56227,-36.49821 -2.88789,-22.96459 -2.79602,-50.47063 0.24515,-73.415915 -21.60058,-9.014602 -45.6979,-22.845717 -64.31712,-36.916722 z" />
    <path
       id="path21225"
       style="fill:#fffcef;fill-opacity:1;stroke-width:0.264583"
       inkscape:transform-center-x="12.575478"
       inkscape:transform-center-y="-1.2234114"
       d="M 183.80151 40.348108 C 179.56999 1.6769077 160.22047 16.276708 143.06737 44.80525 C 165.98406 68.94922 188.03303 79.0193 183.80151 40.348108 z "
       transform="matrix(0.15132349,-1.3241198,1.3420292,0.14930407,50.771674,237.35212)" />
    <path
       id="path21225-2"
       style="fill:#ff2c28;fill-opacity:1;stroke-width:0.319443"
       inkscape:transform-center-x="11.317929"
       inkscape:transform-center-y="-1.1010701"
       d="M 132.36431,2.3389534 C 85.07992,2.185298 100.07871,27.2061 132.20013,51.481069 164.4829,27.415384 179.64869,2.4926076 132.36431,2.3389534 Z" />
    <path
       sodipodi:type="star"
       style="fill:#fffced;fill-opacity:1;stroke-width:0.264583"
       id="path28663"
       inkscape:flatsided="true"
       sodipodi:sides="4"
       sodipodi:cx="101.73549"
       sodipodi:cy="91.590828"
       sodipodi:r1="44.095467"
       sodipodi:r2="31.180206"
       sodipodi:arg1="0.64164944"
       sodipodi:arg2="1.4270476"
       inkscape:rounded="1"
       inkscape:randomized="0"
       d="M 137.06079,117.98274 C 99.736988,167.94026 125.3011,164.23993 75.343574,126.91613 25.386052,89.592327 29.086383,115.15644 66.410186,65.198913 103.73399,15.241391 78.169881,18.941722 128.1274,56.265525 c 49.95753,37.323803 46.2572,11.759695 8.93339,61.717215 z"
       inkscape:transform-center-x="-3.0371103e-06"
       transform="matrix(1.0032065,0.17555785,-0.1536483,1.1462592,44.450681,9.8050284)" />
    <path
       sodipodi:type="star"
       style="fill:#9e48ff;fill-opacity:1;stroke-width:0.264583"
       id="path28663-6"
       inkscape:flatsided="true"
       sodipodi:sides="4"
       sodipodi:cx="101.73549"
       sodipodi:cy="91.590828"
       sodipodi:r1="44.095467"
       sodipodi:r2="31.180206"
       sodipodi:arg1="0.64164944"
       sodipodi:arg2="1.4270476"
       inkscape:rounded="1"
       inkscape:randomized="0"
       d="M 137.06079,117.98274 C 99.736988,167.94026 125.3011,164.23993 75.343574,126.91613 25.386052,89.592327 29.086383,115.15644 66.410186,65.198913 103.73399,15.241391 78.169881,18.941722 128.1274,56.265525 c 49.95753,37.323803 46.2572,11.759695 8.93339,61.717215 z"
       inkscape:transform-center-x="-3.1450153e-06"
       transform="matrix(0.90288585,0.15800206,-0.13828347,1.0316333,53.502017,21.973799)"
       inkscape:transform-center-y="1.3321918e-06" />
  </g>
</svg>
