<?xml version="1.0" encoding="UTF-8" standalone="no"?>
<svg
   viewBox="0 0 95.999999 95.999999"
   version="1.1"
   id="svg1"
   sodipodi:docname="portfolio.svg"
   width="1in"
   height="1in"
   inkscape:version="1.4.3 (0d15f75042, 2025-12-25)"
   xmlns:inkscape="http://www.inkscape.org/namespaces/inkscape"
   xmlns:sodipodi="http://sodipodi.sourceforge.net/DTD/sodipodi-0.dtd"
   xmlns="http://www.w3.org/2000/svg"
   xmlns:svg="http://www.w3.org/2000/svg">
  <defs
     id="defs1" />
  <sodipodi:namedview
     id="namedview1"
     pagecolor="#505050"
     bordercolor="#eeeeee"
     borderopacity="1"
     inkscape:showpageshadow="0"
     inkscape:pageopacity="0"
     inkscape:pagecheckerboard="0"
     inkscape:deskcolor="#505050"
     inkscape:zoom="5.9043416"
     inkscape:cx="34.042746"
     inkscape:cy="71.557513"
     inkscape:window-width="1912"
     inkscape:window-height="1042"
     inkscape:window-x="0"
     inkscape:window-y="0"
     inkscape:window-maximized="1"
     inkscape:current-layer="svg1"
     inkscape:document-units="in" />
  <!--!Font Awesome Free 7.2.0 by @fontawesome - https://fontawesome.com License - https://fontawesome.com/license/free Copyright 2026 Fonticons, Inc.-->
  <path
     d="m 19.926435,19.924176 c 0,-5.161842 4.198984,-9.358951 9.356135,-9.358951 h 37.434862 c 5.15715,0 9.356133,4.197109 9.356133,9.358951 v 56.151646 c 0,5.161838 -4.198983,9.358953 -9.356133,9.358953 H 29.28257 c -5.166545,0 -9.356135,-4.197115 -9.356135,-9.358953 z m 11.698917,44.453376 c 0,1.286939 1.052104,2.339973 2.339032,2.339973 h 28.07592 c 1.286939,0 2.339034,-1.053034 2.339034,-2.339973 0,-6.462867 -5.232292,-11.69827 -11.697987,-11.69827 h -9.356134 c -6.462868,0 -11.697987,5.23512 -11.697987,11.698271 z M 48.002345,46.8302 c 4.518373,0 8.191314,-3.670122 8.191314,-8.188496 0,-4.518374 -3.672941,-8.188496 -8.191314,-8.188496 -4.518373,0 -8.191315,3.670122 -8.191315,8.188496 0,4.518374 3.672942,8.188496 8.191315,8.188496 z"
     id="path1"
     style="fill:#7f7399;fill-opacity:1;stroke:#fffced;stroke-width:1.93045;stroke-dasharray:none;stroke-opacity:1" />
</svg>
